Patient4_TMGait_0pt3_01_left_10_GRF.mot
version=1
nRows=58
nColumns=19
inDegrees=no
endheader
time	F1x	F1y	F1z	M1x	M1y	M1z	F2x	F2y	F2z	M2x	M2y	M2z	EC1x	EC1y	EC1z	EC2x	EC2y	EC2z
18.41	-2.0642	2.9203	4.0677	-1.5997	-5.0114	-4.7192	-14.8307	753.4244	-47.8407	276.1794	49.9248	659.3522	-0.0592	0.0182	-0.0073	-0.0462	0.0165	0.9585
18.4286	-1.5815	2.1647	2.8363	-1.1553	-3.5285	-3.0454	-16.9683	770.4619	-47.6377	282.8929	50.3286	672.7016	-0.0592	0.0182	-0.0073	-0.0462	0.0165	0.9585
18.4471	-1.1635	1.5364	1.7677	-0.77499	-2.2449	-1.6021	-18.8435	791.4189	-47.3097	291.2372	50.5489	689.0178	-0.0592	0.0182	-0.0073	-0.0462	0.0165	0.9585
18.4657	-0.83168	1.0753	0.93939	-0.48631	-1.2504	-0.47902	-20.1663	814.9064	-46.7904	300.7172	50.4168	707.0478	-0.0592	0.0182	-0.0073	-0.0462	0.0165	0.9585
18.4843	-0.59247	0.77467	0.35819	-0.28785	-0.55209	0.31504	-20.7285	838.8628	-46.0492	310.5517	49.8075	724.984	-0.0592	0.0182	-0.0073	-0.0462	0.0165	0.9585
18.5029	-0.44291	0.59564	-0.0058182	-0.16275	-0.11526	0.81066	-20.4386	860.8331	-45.1105	319.7718	48.6755	740.7414	-0.0592	0.0182	-0.0073	-0.0462	0.0165	0.9585
18.5214	-0.37052	0.4844	-0.19821	-0.085888	0.11242	1.0506	-19.3151	878.3222	-44.0411	327.3619	47.051	752.2739	-0.0592	0.0182	-0.0073	-0.0462	0.0165	0.9585
18.54	-0.35354	0.37985	-0.26597	-0.029859	0.18925	1.0731	-17.4684	889.1647	-42.9258	332.415	45.026	757.8824	-0.0592	0.0182	-0.0073	-0.0462	0.0165	0.9585
18.5586	-0.3728	0.2187	-0.25103	0.032299	0.1668	0.90558	-15.0618	891.8739	-41.8486	334.2834	42.7247	756.4761	-0.0592	0.0182	-0.0073	-0.0462	0.0165	0.9585
18.5771	-0.41685	-0.063239	-0.1878	0.1269	0.087227	0.55703	-12.2606	885.9065	-40.8762	332.6962	40.2715	747.7557	-0.0592	0.0182	-0.0073	-0.0462	0.0165	0.9585
18.5957	-0.47573	-0.52598	-0.10395	0.2769	-0.01727	0.022407	-9.2095	871.7455	-40.0492	327.7994	37.7729	732.257	-0.0592	0.0182	-0.0073	-0.0462	0.0165	0.9585
18.6143	-0.53799	-1.2115	-0.025347	0.498	-0.11712	-0.70427	-6.032	850.8063	-39.3859	320.1224	35.3184	711.2558	-0.0592	0.0182	-0.0073	-0.0462	0.0165	0.9585
18.6329	-0.59075	-2.1249	0.021697	0.79301	-0.18228	-1.6172	-2.8077	825.2261	-38.8893	310.4927	32.9721	686.5762	-0.0592	0.0182	-0.0073	-0.0462	0.0165	0.9585
18.6514	-0.62035	-3.2122	0.009032	1.1444	-0.1823	-2.671	0.43251	797.5358	-38.5536	299.9051	30.7689	660.3172	-0.0592	0.0182	-0.0073	-0.0462	0.0165	0.9585
18.67	-0.6068	-4.3272	-0.091152	1.5016	-0.08466	-3.74	3.6813	770.2823	-38.3516	289.3662	28.7133	634.5567	-0.0592	0.0182	-0.0073	-0.0462	0.0165	0.9585
18.6886	-0.52369	-5.1954	-0.30809	1.7694	0.14843	-4.5847	6.927	745.6783	-38.2487	279.7517	26.8011	611.0801	-0.0592	0.0182	-0.0073	-0.0462	0.0165	0.9585
18.7071	-0.33712	-5.3719	-0.6663	1.7948	0.55338	-4.8066	10.1443	725.3315	-38.2236	271.6996	25.0352	591.1674	-0.0592	0.0182	-0.0073	-0.0462	0.0165	0.9585
18.7257	-0.010759	-4.2089	-1.1785	1.3571	1.156	-3.8135	13.2947	710.0976	-38.2721	265.5512	23.4316	575.4796	-0.0592	0.0182	-0.0073	-0.0462	0.0165	0.9585
18.7443	0.48688	-0.84826	-1.8347	0.16777	1.9606	-0.82026	16.3273	700.0447	-38.4027	261.3382	22.0135	564.0441	-0.0592	0.0182	-0.0073	-0.0462	0.0165	0.9585
18.7629	1.1704	5.7275	-2.5857	-2.1096	2.9266	5.1115	19.1642	694.4822	-38.6318	258.795	20.8112	556.2935	-0.0592	0.0182	-0.0073	-0.0462	0.0165	0.9585
18.7814	2.0145	16.5606	-3.3176	-5.8129	3.9331	14.9483	21.6839	692.0651	-38.975	257.4066	19.8674	551.1701	-0.0592	0.0182	-0.0073	-0.0462	0.0165	0.9585
18.8	2.9286	32.4662	-3.8222	-11.1956	4.7508	29.4552	23.7325	691.029	-39.4241	256.5096	19.2234	547.3102	-0.0592	0.0182	-0.0073	-0.0462	0.0165	0.9585
18.8186	3.734	53.6327	-3.7722	-18.2907	5.0071	48.8398	25.1623	689.5185	-39.9218	255.4227	18.8874	543.2869	-0.0592	0.0182	-0.0073	-0.0462	0.0165	0.9585
18.8371	4.1008	79.0862	-2.7183	-26.732	4.1561	72.2635	25.8863	685.856	-40.3555	253.5495	18.8064	537.8147	-0.0592	0.0182	-0.0073	-0.0462	0.0165	0.9585
18.8557	3.5933	106.4109	-0.27165	-35.6732	1.667	97.5722	25.9505	678.7541	-40.6005	250.4521	18.8635	529.8987	-0.0592	0.0182	-0.0073	-0.0462	0.0165	0.9585
18.8743	2.0395	133.1877	3.3883	-44.3011	-2.3552	122.5689	25.571	667.573	-40.5792	245.9307	18.9113	519.0172	-0.0592	0.0182	-0.0073	-0.0462	0.0165	0.9585
18.8929	-0.46798	158.8682	7.7339	-52.4581	-7.3867	146.7421	25.0649	652.3972	-40.2893	240.0371	18.8243	505.1921	-0.0592	0.0182	-0.0073	-0.0462	0.0165	0.9585
18.9114	-3.695	184.3537	12.2937	-60.4758	-12.9093	170.9111	24.6915	633.7283	-39.7305	232.9621	18.5064	488.7865	-0.0592	0.0182	-0.0073	-0.0462	0.0165	0.9585
18.93	-7.3875	210.7845	16.6895	-68.7619	-18.4826	196.117	24.5439	612.1199	-38.8682	224.9018	17.8967	470.2347	-0.0592	0.0182	-0.0073	-0.0462	0.0165	0.9585
18.9486	-11.3209	238.7632	20.6434	-77.5352	-23.7651	222.9075	24.5407	587.9707	-37.6921	215.9821	17.0136	449.8786	-0.0592	0.0182	-0.0073	-0.0462	0.0165	0.9585
18.9671	-15.2642	268.1052	24.002	-86.7435	-28.522	251.0867	24.478	561.5017	-36.251	206.2538	15.9628	427.9307	-0.0592	0.0182	-0.0073	-0.0462	0.0165	0.9585
18.9857	-18.9339	298.0023	26.7378	-96.1225	-32.6128	279.841	24.1321	532.8803	-34.624	195.7471	14.8794	404.5507	-0.0592	0.0182	-0.0073	-0.0462	0.0165	0.9585
19.0043	-22.0593	327.3571	28.9146	-105.3117	-35.9867	308.0541	23.3485	502.4181	-32.8732	184.5553	13.8651	380.0006	-0.0592	0.0182	-0.0073	-0.0462	0.0165	0.9585
19.0229	-24.4808	355.1776	30.6136	-113.9894	-38.6514	334.7079	22.0933	470.7309	-31.0304	172.8952	12.9604	354.756	-0.0592	0.0182	-0.0073	-0.0462	0.0165	0.9585
19.0414	-26.1208	380.8861	31.9164	-121.9688	-40.6492	359.1776	20.4627	438.7119	-29.1152	161.0955	12.1513	329.4786	-0.0592	0.0182	-0.0073	-0.0462	0.0165	0.9585
19.06	-26.9563	404.3615	32.9164	-129.2067	-42.0528	381.276	18.6454	407.3587	-27.138	149.5308	11.3851	304.8933	-0.0592	0.0182	-0.0073	-0.0462	0.0165	0.9585
19.0786	-27.0438	425.7942	33.6924	-135.7584	-42.9484	401.1273	16.857	377.5683	-25.0997	138.5418	10.5896	281.6496	-0.0592	0.0182	-0.0073	-0.0462	0.0165	0.9585
19.0971	-26.5156	445.4842	34.3039	-141.7175	-43.4322	418.9804	15.2858	349.9278	-22.9959	128.3558	9.6975	260.1588	-0.0592	0.0182	-0.0073	-0.0462	0.0165	0.9585
19.1157	-25.5375	463.714	34.7918	-147.1801	-43.5949	435.1059	14.0374	324.5891	-20.8272	119.0361	8.6752	240.5133	-0.0592	0.0182	-0.0073	-0.0462	0.0165	0.9585
19.1343	-24.2601	480.6995	35.2008	-152.225	-43.5222	449.7353	13.1066	301.3049	-18.6182	110.4938	7.545	222.5184	-0.0592	0.0182	-0.0073	-0.0462	0.0165	0.9585
19.1529	-22.7811	496.6176	35.5962	-156.9167	-43.2973	463.0591	12.41	279.5747	-16.4159	102.5426	6.3669	205.7961	-0.0592	0.0182	-0.0073	-0.0462	0.0165	0.9585
19.1714	-21.1405	511.6428	36.0444	-161.3161	-42.9926	475.2529	11.8374	258.8084	-14.2694	94.9612	5.2096	189.9102	-0.0592	0.0182	-0.0073	-0.0462	0.0165	0.9585
19.19	-19.3446	525.9642	36.5873	-165.4871	-42.6546	486.5038	11.2794	238.4816	-12.2178	87.553	4.1315	174.4764	-0.0592	0.0182	-0.0073	-0.0462	0.0165	0.9585
19.2086	-17.3898	539.7759	37.258	-169.4949	-42.3174	496.9937	10.6392	218.2534	-10.3049	80.1872	3.1854	159.2421	-0.0592	0.0182	-0.0073	-0.0462	0.0165	0.9585
19.2271	-15.2767	553.2937	38.0993	-173.4102	-42.0239	506.9186	9.8422	198.0272	-8.5979	72.8217	2.4328	144.1326	-0.0592	0.0182	-0.0073	-0.0462	0.0165	0.9585
19.2457	-13.0405	566.8038	39.1729	-177.3249	-41.8452	516.5437	8.8445	177.9251	-7.176	65.4939	1.9341	129.2333	-0.0592	0.0182	-0.0073	-0.0462	0.0165	0.9585
19.2643	-10.7682	580.682	40.5462	-181.3556	-41.8729	526.2148	7.6393	158.1829	-6.0968	58.2841	1.7218	114.7025	-0.0592	0.0182	-0.0073	-0.0462	0.0165	0.9585
19.2829	-8.5617	595.3907	42.2801	-185.6457	-42.1948	536.3477	6.2614	139.0398	-5.3709	51.275	1.7842	100.6891	-0.0592	0.0182	-0.0073	-0.0462	0.0165	0.9585
19.3014	-6.4995	611.4961	44.413	-190.3717	-42.8676	547.4423	4.7671	120.6955	-4.9568	44.5376	2.0712	87.314	-0.0592	0.0182	-0.0073	-0.0462	0.0165	0.9585
19.32	-4.6319	629.6186	46.9727	-195.725	-43.928	560.0391	3.2165	103.2874	-4.7638	38.1231	2.5027	74.6629	-0.0592	0.0182	-0.0073	-0.0462	0.0165	0.9585
19.3386	-2.9941	650.3058	49.9863	-201.8709	-45.4052	574.6149	1.6775	86.8766	-4.6709	32.0604	2.9789	62.7753	-0.0592	0.0182	-0.0073	-0.0462	0.0165	0.9585
19.3571	-1.6159	673.8742	53.4705	-208.8994	-47.3195	591.4578	0.22231	71.494	-4.5587	26.3698	3.3981	51.6741	-0.0592	0.0182	-0.0073	-0.0462	0.0165	0.9585
19.3757	-0.49868	700.2618	57.413	-216.7798	-49.6627	610.5326	-1.0657	57.204	-4.3302	21.0827	3.6665	41.4067	-0.0592	0.0182	-0.0073	-0.0462	0.0165	0.9585
19.3943	0.42262	728.8917	61.7638	-225.3198	-52.3758	631.3583	-2.0792	44.1426	-3.9264	16.2548	3.7066	32.0652	-0.0592	0.0182	-0.0073	-0.0462	0.0165	0.9585
19.4129	1.2728	758.581	66.4198	-234.1406	-55.3397	652.9414	-2.696	32.538	-3.344	11.9741	3.4759	23.8039	-0.0592	0.0182	-0.0073	-0.0462	0.0165	0.9585
19.4314	2.1766	787.5715	71.217	-242.69	-58.3839	673.8178	-2.8268	22.6841	-2.6351	8.3486	2.9836	16.8227	-0.0592	0.0182	-0.0073	-0.0462	0.0165	0.9585
19.45	3.2147	813.7581	75.9291	-250.3195	-61.2985	692.2531	-2.4926	14.8561	-1.8943	5.475	2.308	11.3022	-0.0592	0.0182	-0.0073	-0.0462	0.0165	0.9585
19.4686	4.4267	835.0984	80.2831	-256.4114	-63.8499	706.5746	-1.8933	9.1641	-1.2291	3.3894	1.5998	7.308	-0.0592	0.0182	-0.0073	-0.0462	0.0165	0.9585
